<svg xmlns="http://www.w3.org/2000/svg" width="512" height="512" style=""><rect id="backgroundrect" width="100%" height="100%" x="0" y="0" fill="none" stroke="none"/><title>Logo Linkedin</title><g class="currentLayer" style=""><title>Layer 1</title><path d="M470.06167472944503,0.49318370822174984 H44.72526028976786 C21.48413871122176,0.49318370822174984 1.1780192703481451,17.215870306588258 1.1780192703481451,40.18396843046715 v426.28062055373454 C1.1780192703481451,489.55782285813643 21.48413871122176,510.1369657536772 44.72526028976786,510.1369657536772 h425.2112786896213 c23.36625732860191,0 40.885262336414435,-20.71565462287443 40.885262336414435,-43.67237676947552 V40.18396843046715 C510.9583130431372,17.215870306588258 493.3027963079911,0.49318370822174984 470.06167472944503,0.49318370822174984 zm-310.90545900228346,424.8131194848983 h-73.01102216892262 V198.29867661461415 h73.01102216892262 zM125.17617159837192,163.78396155376788 h-0.5232949547788159 c-23.36625732860191,0 -38.49630710807637,-17.39386925775673 -38.49630710807637,-39.16748976746659 c0,-22.171779714432873 15.528208984197471,-39.15611379018878 39.4177612675782,-39.15611379018878 s38.50768308535417,16.859198325700113 39.03097804013299,39.15611379018878 c-0.011375977277800358,21.77362050970986 -15.14142575675226,39.16748976746659 -39.429137244855994,39.16748976746659 zm300.81496715687456,261.52234163935213 h-73.01102216892262 V301.1830151150404 c0,-29.736804604170104 -10.625162777465524,-50.05430002232152 -37.04018201651793,-50.05430002232152 c-20.18098369081781,0 -32.12575983250817,13.651172733360415 -37.43834122124093,26.94969017110902 c-1.9907960236150606,4.777910456676145 -2.525466955671677,11.284969459577944 -2.525466955671677,17.928540189813344 v129.29935773947872 h-73.01102216892262 V198.29867661461415 h73.01102216892262 v31.591088900451556 c10.625162777465524,-15.13004977947446 27.22271362577623,-36.90367028918431 65.8441564839084,-36.90367028918431 c47.92699227137286,0 84.18223185572256,31.591088900451556 84.18223185572256,99.69906486264222 z" id="svg_1" class="selected" fill="#ffffff" fill-opacity="1"/></g></svg>